<?xml version="1.0" encoding="utf-8"?>
<!-- Generator: Adobe Illustrator 21.1.0, SVG Export Plug-In . SVG Version: 6.00 Build 0)  -->
<svg version="1.1" id="Capa_1" xmlns="http://www.w3.org/2000/svg" xmlns:xlink="http://www.w3.org/1999/xlink" x="0px" y="0px"
	 viewBox="0 0 512 512" style="enable-background:new 0 0 512 512;" xml:space="preserve">
<style type="text/css">
	.st0{fill:#95868A;}
	.st1{fill:#FFCD33;}
	.st2{fill:#FFA712;}
	.st3{fill:#F58410;}
</style>
<path class="st0" d="M511.5,459.1c0.6-1.5,0.7-3.3,0.2-4.9L500,410.5c-1.1-4.3-5.5-6.8-9.8-5.7c-4.3,1.1-6.8,5.5-5.7,9.8l6.9,25.9
	L264,319.2V47.3l18.3,18.3c3.3,3.3,8.8,3,11.8-0.5c2.6-3.1,2.4-7.9-0.5-10.8l-32-32c-3.1-3.1-8.2-3.1-11.3,0l-32,32
	c-3.1,3.1-3.1,8.2,0,11.3c3.1,3.1,8.2,3.1,11.3,0L248,47.3v271.9L20.5,440.5l6.9-25.9c1.1-4.3-1.4-8.7-5.7-9.8
	c-4.3-1.1-8.7,1.4-9.8,5.7L0.3,454.2c-1.1,4.2,1.4,8.7,5.7,9.8l43.7,11.7c4.3,1.2,8.9-1.6,9.9-5.9c1-4.1-1.6-8.4-5.7-9.5l-24.1-6.5
	L256,333.1l226.4,120.7l-24.1,6.5c-4.1,1.1-6.7,5.4-5.7,9.5c1,4.4,5.5,7.1,9.9,5.9l43.7-11.7C508.5,463.3,510.6,461.5,511.5,459.1z"
	/>
<polygon class="st1" points="96,212 256,140 424,212 424,412 256,492 96,412 "/>
<polygon class="st2" points="256,492 424,412 424,212 256,292 "/>
<polygon class="st3" points="96,412 256,492 256,292 96,212 "/>
</svg>
