<svg id="Layer_1" data-name="Layer 1" xmlns="http://www.w3.org/2000/svg" viewBox="0 0 714 714">
  <defs>
    <style>
      .cls-1, .cls-5 {
        fill: #ffcd33;
      }

      .cls-1 {
        stroke: #ffcd33;
      }

      .cls-2, .cls-3 {
        fill: #ffa712;
      }

      .cls-2 {
        stroke: #ffa712;
      }

      .cls-2, .cls-8 {
        stroke-miterlimit: 10;
      }

      .cls-4 {
        fill: #f58410;
      }

      .cls-6, .cls-7, .cls-8 {
        fill: none;
        stroke: #fff;
        stroke-width: 4px;
      }

      .cls-6, .cls-7 {
        stroke-linecap: round;
        stroke-linejoin: round;
        animation: dash 5s linear infinite;
      }

      .cls-7 {
        stroke-dasharray: 11.86 11.86;
      }

      .cls-8 {
        stroke-dasharray: 2500;
        animation: dashing 1.5s linear forwards;
      }

      @keyframes dash {
        from {
          stroke-dashoffset: 0;
        }
        to {
          stroke-dashoffset: 300;
        }
      }

      @keyframes dashing {
        from {
          stroke-dashoffset: 2500;
        }
        to {
          stroke-dashoffset: 0;
        }
      }
    </style>
  </defs>
  <title>m-l-circle</title>
  <g>
    <g>
      <path class="cls-1" d="M299.3,469.8a8.2,8.2,0,0,1,3.6-3.6h34.8a10.9,10.9,0,0,0-2.5,2.8,44.2,44.2,0,0,0-3.9,8.9,286.9,286.9,0,0,0-7,28.3c-.9,4.3-1.8,8.7-2.6,13-2.5,14.1-5.1,28.2-8.3,42.2a151.9,151.9,0,0,1-5.5,19.2c-1.1,2.6-2.2,5.3-4.3,7.2-.5.4-1,1-1.7.9H273c-2-.1-3.9.1-5.9-.1a11.5,11.5,0,0,0,3.2-3.7,70.4,70.4,0,0,0,4.8-13.1c2-7.2,3.7-14.5,5.2-21.7,1-4.8,2.1-9.5,2.8-14.3s2-10.7,2.9-16c1.5-7.9,3.1-15.7,4.9-23.5,1.4-6.1,2.9-12.1,4.8-18.1A45.8,45.8,0,0,1,299.3,469.8Z" transform="translate(-3 -3)"/>
      <path class="cls-2" d="M337.7,466.1h2.5a9.6,9.6,0,0,1,4.3,4.5,56.2,56.2,0,0,1,3,6.9,277.4,277.4,0,0,1,6.8,27.4q2.5,12.3,4.8,24.8c.1.4,0,1,.6,1.2-2.1,10.9-4.1,21.8-6.8,32.6a143.2,143.2,0,0,1-5.1,17.2c-1.2,2.8-2.3,5.9-4.8,7.9-1.6.3-2.7-.8-3.7-1.9a27.9,27.9,0,0,1-3.7-7.1c-3.3-8.9-5.3-18.2-7.3-27.5-1.5-7.2-2.9-14.5-4.3-21.7-.6-3.7-1.5-7.3-2-11l-.4-.2c.8-4.3,1.7-8.7,2.6-13a286.9,286.9,0,0,1,7-28.3,44.2,44.2,0,0,1,3.9-8.9A10.9,10.9,0,0,1,337.7,466.1Z" transform="translate(-3 -3)"/>
      <path class="cls-1" d="M373.9,471.1c1-2,2.3-4.2,4.6-5H413a15.4,15.4,0,0,0-2.9,3.5c-2.2,4-3.5,8.4-4.9,12.8-3.4,12.1-5.8,24.4-8.1,36.7s-4.4,24.3-7,36.4c-1.3,6.1-2.7,12.1-4.5,18.1a59.1,59.1,0,0,1-4.2,10.9c-.9,1.6-1.9,3.3-3.7,4.1H343c2.5-2,3.7-5.1,4.8-7.9a143.2,143.2,0,0,0,5.1-17.2c2.6-10.8,4.7-21.7,6.8-32.6,2.5-14.1,5.2-28.1,8.5-42C369.7,482.8,371.2,476.7,373.9,471.1Z" transform="translate(-3 -3)"/>
      <path class="cls-2" d="M413,466.1h2.8a10.4,10.4,0,0,1,3.5,3.5,42.6,42.6,0,0,1,3.6,8.1,232.5,232.5,0,0,1,5.9,22.6c2.2,10.2,4.1,20.5,6,30.8.5,2.5.9,5,1.2,7.4l.4.4a18.2,18.2,0,0,0-2,4.8,137.2,137.2,0,0,0-4,18,97.1,97.1,0,0,1-3.3,14.1,31,31,0,0,1-4.6,9.6,10.3,10.3,0,0,1-4,3.1c-2.4.3-3.8-2.1-5-3.8-2.4-4.2-3.7-8.9-5.1-13.5-4.6-16.9-7.6-34.3-10.8-51.5a.8.8,0,0,0-.4-.6c2.3-12.3,4.7-24.6,8.1-36.7,1.3-4.4,2.6-8.8,4.9-12.8A15.4,15.4,0,0,1,413,466.1Z" transform="translate(-3 -3)"/>
      <path class="cls-2" d="M240,532l2.3-.2h31.6a13.4,13.4,0,0,1,4,.6,11.4,11.4,0,0,1,4.7,3.6l.6-.4c-.7,4.8-1.8,9.6-2.8,14.3-1.5,7.3-3.2,14.5-5.2,21.7a70.4,70.4,0,0,1-4.8,13.1,11.5,11.5,0,0,1-3.2,3.7c-.5.1-.9-.3-1.3-.5a10.8,10.8,0,0,1-3-3.7c-4-9-4.4-19-6.9-28.5a66.4,66.4,0,0,0-5-13.8,25.5,25.5,0,0,0-5.3-7.1A14.5,14.5,0,0,0,240,532Z" transform="translate(-3 -3)"/>
      <path class="cls-1" d="M439,535.1a9.5,9.5,0,0,1,7.3-3.2H470c3.3.1,6.6-.1,9.9.1a32.3,32.3,0,0,1-3.2,1.5,19.2,19.2,0,0,0-8.7,7.9c-3.2,5.5-4.3,11.8-5.2,18s-.9,12.4-2.9,18.3c-1.3,4.1-3.4,8.3-6.9,11H420.5a10.3,10.3,0,0,1-2.1-.1,10.3,10.3,0,0,0,4-3.1,31,31,0,0,0,4.6-9.6,97.1,97.1,0,0,0,3.3-14.1,137.2,137.2,0,0,1,4-18,18.2,18.2,0,0,1,2-4.8A24.7,24.7,0,0,1,439,535.1Z" transform="translate(-3 -3)"/>
    </g>
    <g>
      <polygon class="cls-3" points="357 88.5 357 184.4 310.5 161.2 275.6 135 357 88.5"/>
      <polyline class="cls-4" points="275.6 135 357 184.4 316.3 210.6 275.6 228"/>
      <polygon class="cls-5" points="357 184.4 275.6 228 357 274.5 438.4 228 357 184.4"/>
    </g>
    <g>
      <!-- <line class="cls-6" x1="357" y1="298.6" x2="357" y2="304.6"/> -->
      <line class="cls-7" x1="357" y1="316.5" x2="357" y2="429.2"/>
      <!-- <line class="cls-6" x1="357" y1="435.1" x2="357" y2="441.1"/> -->
    </g>
  </g>
  <circle class="cls-8" cx="357" cy="357" r="355"/>
</svg>
